# Blender 4.4.3
# www.blender.org
mtllib asan_map.mtl
o Plane
v -9.799999 0.000000 2.725000
v 9.959999 0.000000 2.725000
v -9.799999 0.000000 -5.025000
v 9.959999 0.000000 -5.025000
v -9.999999 0.000000 2.925000
v 10.159999 0.000000 2.925000
v -9.999999 0.000000 -5.224999
v 10.159999 0.000000 -5.224999
v -9.799999 2.700000 -5.025000
v -9.799999 2.700000 2.725000
v 9.959999 2.700000 2.725000
v 9.959999 2.700000 -5.025000
v -9.999999 2.700000 -5.224999
v -9.999999 2.700000 2.925000
v 10.159999 2.700000 2.925000
v 10.159999 2.700000 -5.224999
v 0.601200 0.000000 2.093978
v 0.601200 0.000000 2.585159
v 0.601200 0.000000 2.725000
v 1.316200 0.000000 2.093978
v 1.316200 0.000000 2.552477
v 1.316200 0.000000 2.725000
v 0.601200 0.000000 2.925000
v 1.316200 0.000000 2.925000
v 1.316200 -0.200000 2.093978
v 1.316200 -0.200000 2.552477
v 0.601200 -0.200000 2.093978
v 0.601200 -0.200000 2.585159
v 1.316200 -0.200000 2.925000
v 10.159999 -0.200000 2.925000
v 10.159999 -0.200000 -5.224999
v -9.999999 -0.200000 -5.224999
v -9.999999 -0.200000 2.925000
v 0.601200 -0.200000 2.925000
vn -0.0000 1.0000 -0.0000
vn 1.0000 -0.0000 -0.0000
vn -1.0000 -0.0000 -0.0000
vn 0.7071 -0.0000 0.7071
vn -0.0000 -0.0000 1.0000
vn -0.7071 -0.0000 0.7071
vn -0.0000 -0.0000 -1.0000
vn -0.0000 -1.0000 -0.0000
vt 0.000000 0.000000
vt 0.526377 0.000000
vt 0.526377 0.018044
vt 0.526377 0.081422
vt 0.562561 0.081422
vt 0.562561 0.022261
vt 0.562561 0.000000
vt 1.000000 0.000000
vt 1.000000 1.000000
vt 0.000000 1.000000
vt 0.561319 0.045708
vt 0.561319 0.101966
vt 0.525853 0.101966
vt 0.525853 0.041698
vt 0.525853 0.000000
vt 0.561319 0.000000
s 0
usemtl Material.001
f 1/1/1 19/2/1 18/3/1 17/4/1 20/5/1 21/6/1 22/7/1 2/8/1 4/9/1 3/10/1
f 18/3/1 19/2/1 22/7/1 21/6/1 20/5/1 17/4/1
f 8/9/2 6/8/2 30/8/2 31/9/2
f 5/1/3 7/10/3 32/10/3 33/1/3
f 5/1/3 14/1/3 13/10/3 7/10/3
f 8/9/2 16/9/2 15/8/2 6/8/2
f 1/1/4 10/1/4 14/1/4 5/1/4
f 4/9/5 12/9/5 9/10/5 3/10/5
f 11/8/1 15/8/1 16/9/1 12/9/1
f 9/10/1 13/10/1 14/1/1 10/1/1
f 12/9/1 16/9/1 13/10/1 9/10/1
f 11/8/6 2/8/6 6/8/6 15/8/6
f 2/8/3 11/8/3 12/9/3 4/9/3
f 3/10/2 9/10/2 10/1/2 1/1/2
f 7/10/7 13/10/7 16/9/7 8/9/7
f 26/11/8 25/12/8 27/13/8 28/14/8 34/15/8 33/1/8 32/10/8 31/9/8 30/8/8 29/16/8
f 26/11/8 29/16/8 34/15/8 28/14/8 27/13/8 25/12/8
f 24/1/5 23/1/5 34/1/5 29/1/5
f 23/1/5 5/1/5 33/1/5 34/1/5
f 7/10/7 8/9/7 31/9/7 32/10/7
f 6/1/5 24/1/5 29/1/5 30/1/5
f 1/1/1 5/1/1 23/1/1 24/1/1 6/1/1 2/8/1 22/7/1 19/2/1
o Plane.002
v -6.090001 0.000000 2.725000
v -6.090001 0.000000 -3.775000
v -6.290001 0.000000 2.725000
v -6.290001 0.000000 -3.775000
v -6.090001 2.700000 2.725000
v -6.090001 2.700000 -3.775000
v -6.290001 2.700000 2.725000
v -6.290001 2.700000 -3.775000
v -6.090001 0.000000 -3.575000
v -6.290001 0.000000 -3.575000
v -6.090001 2.700000 -3.575000
v -6.290001 2.700000 -3.575000
v -9.800000 0.000000 -3.575000
v -9.800000 0.000000 -3.775000
v -9.800000 2.700000 -3.575000
v -9.800000 2.700000 -3.775000
v -6.090001 0.000000 1.606356
v -6.290001 0.000000 1.606356
v -6.090001 2.300000 1.606356
v -6.290001 2.300000 1.606356
v -6.090001 2.300000 2.321356
v -6.290001 2.300000 2.321356
v -6.090001 0.000000 2.321356
v -6.290001 0.000000 2.321356
vn -0.0000 -1.0000 -0.0000
vn -0.0000 1.0000 -0.0000
vn -0.0000 -0.0000 -1.0000
vn 1.0000 -0.0000 -0.0000
vn -0.0000 -0.0000 1.0000
vn -1.0000 -0.0000 -0.0000
vt 0.000000 0.000000
s 0
usemtl Material.003
f 43/17/9 51/17/9 52/17/9 44/17/9
f 45/17/10 46/17/10 41/17/10 39/17/10
f 38/17/11 42/17/11 40/17/11 36/17/11
f 43/17/12 45/17/12 39/17/12 35/17/12 57/17/12 55/17/12 53/17/12 51/17/12
f 35/17/13 39/17/13 41/17/13 37/17/13
f 38/17/11 48/17/11 50/17/11 42/17/11
f 37/17/14 41/17/14 46/17/14 44/17/14 52/17/14 54/17/14 56/17/14 58/17/14
f 36/17/12 40/17/12 45/17/12 43/17/12
f 40/17/10 42/17/10 46/17/10 45/17/10
f 36/17/9 43/17/9 44/17/9 38/17/9
f 47/17/14 49/17/14 50/17/14 48/17/14
f 42/17/10 50/17/10 49/17/10 46/17/10
f 46/17/13 49/17/13 47/17/13 44/17/13
f 44/17/9 47/17/9 48/17/9 38/17/9
f 54/17/13 52/17/13 51/17/13 53/17/13
f 53/17/9 55/17/9 56/17/9 54/17/9
f 57/17/9 35/17/9 37/17/9 58/17/9
f 55/17/11 57/17/11 58/17/11 56/17/11
o Plane.003
v -6.090001 0.000000 -3.775000
v -6.090001 0.000000 -5.025000
v -6.290001 0.000000 -3.775000
v -6.290001 0.000000 -5.025000
v -6.090001 2.700000 -3.775000
v -6.090001 2.700000 -5.025000
v -6.290001 2.700000 -3.775000
v -6.290001 2.700000 -5.025000
v -6.090001 0.000000 -4.661294
v -6.290001 0.000000 -4.661294
v -6.290001 2.300000 -4.661294
v -6.090001 2.300000 -4.661294
v -6.290001 2.300000 -3.946295
v -6.090001 2.300000 -3.946295
v -6.090001 0.000000 -3.946295
v -6.290001 0.000000 -3.946295
vn -0.0000 -1.0000 -0.0000
vn -0.0000 1.0000 -0.0000
vn -0.0000 -0.0000 -1.0000
vn 1.0000 -0.0000 -0.0000
vn -0.0000 -0.0000 1.0000
vn -1.0000 -0.0000 -0.0000
vt 0.000000 0.000000
s 0
usemtl Material.003
f 60/18/15 67/18/15 68/18/15 62/18/15
f 64/18/16 66/18/16 65/18/16 63/18/16
f 62/18/17 66/18/17 64/18/17 60/18/17
f 60/18/18 64/18/18 63/18/18 59/18/18 73/18/18 72/18/18 70/18/18 67/18/18
f 59/18/19 63/18/19 65/18/19 61/18/19
f 61/18/20 65/18/20 66/18/20 62/18/20 68/18/20 69/18/20 71/18/20 74/18/20
f 69/18/19 68/18/19 67/18/19 70/18/19
f 70/18/15 72/18/15 71/18/15 69/18/15
f 73/18/15 59/18/15 61/18/15 74/18/15
f 72/18/17 73/18/17 74/18/17 71/18/17
o Plane.005
v -4.710001 0.000000 2.725000
v -4.710001 0.000000 -3.775000
v -1.150002 0.000000 -3.775000
v -4.510001 0.000000 2.725000
v -4.510001 0.000000 -3.775000
v -4.710001 0.000000 -3.575000
v -1.150002 0.000000 -3.575000
v -4.710001 2.700000 -3.775000
v -4.710001 2.700000 2.725000
v -1.150002 2.700000 -3.775000
v -4.510001 2.700000 -3.775000
v -4.510001 2.700000 2.725000
v -1.150002 2.700000 -3.575000
v -4.710001 2.700000 -3.575000
v -4.510001 0.000000 1.606356
v -4.710001 0.000000 1.606356
v -4.510001 2.300000 1.606356
v -4.710001 2.300000 1.606356
v -4.510001 2.300000 2.321356
v -4.710001 2.300000 2.321356
v -4.510001 0.000000 2.321356
v -4.710001 0.000000 2.321356
vn -0.0000 -1.0000 -0.0000
vn -0.0000 1.0000 -0.0000
vn -1.0000 -0.0000 -0.0000
vn 1.0000 -0.0000 -0.0000
vn -0.0000 -0.0000 1.0000
vn -0.0000 -0.0000 -1.0000
vt 0.000000 0.000000
s 0
usemtl Material.003
f 75/19/21 96/19/21 95/19/21 78/19/21
f 76/19/21 77/19/21 81/19/21 80/19/21
f 83/19/22 86/19/22 85/19/22 82/19/22
f 82/19/22 88/19/22 87/19/22 84/19/22
f 75/19/23 83/19/23 82/19/23 76/19/23 90/19/23 92/19/23 94/19/23 96/19/23
f 77/19/24 84/19/24 87/19/24 81/19/24
f 81/19/25 87/19/25 88/19/25 80/19/25
f 78/19/25 86/19/25 83/19/25 75/19/25
f 76/19/26 82/19/26 84/19/26 77/19/26
f 80/19/23 88/19/23 82/19/23 76/19/23
f 76/19/26 82/19/26 85/19/26 79/19/26
f 79/19/24 85/19/24 86/19/24 78/19/24 95/19/24 93/19/24 91/19/24 89/19/24
f 92/19/25 90/19/25 89/19/25 91/19/25
f 91/19/21 93/19/21 94/19/21 92/19/21
f 90/19/21 76/19/21 79/19/21 89/19/21
f 93/19/26 95/19/26 96/19/26 94/19/26
o Plane.006
v -0.990001 0.000000 2.725000
v -0.990001 0.000000 -3.775000
v -1.150001 0.000000 2.725000
v -1.150001 0.000000 -3.775000
v -0.990001 2.700000 2.725000
v -0.990001 2.700000 -3.775000
v -1.150001 2.700000 2.725000
v -1.150001 2.700000 -3.775000
vn -0.0000 -1.0000 -0.0000
vn -0.0000 1.0000 -0.0000
vn -0.0000 -0.0000 -1.0000
vn 1.0000 -0.0000 -0.0000
vn -0.0000 -0.0000 1.0000
vn -1.0000 -0.0000 -0.0000
vt 0.000000 0.000000
s 0
usemtl Material.003
f 98/20/27 97/20/27 99/20/27 100/20/27
f 102/20/28 104/20/28 103/20/28 101/20/28
f 100/20/29 104/20/29 102/20/29 98/20/29
f 98/20/30 102/20/30 101/20/30 97/20/30
f 97/20/31 101/20/31 103/20/31 99/20/31
f 99/20/32 103/20/32 104/20/32 100/20/32
o Plane.007
v -0.990001 2.300000 -3.775000
v -0.990001 2.300000 -4.490000
v -1.150001 2.300000 -3.775000
v -1.150001 2.300000 -4.490000
v -0.990001 2.700000 -3.775000
v -0.990001 2.700000 -4.490000
v -1.150001 2.700000 -3.775000
v -1.150001 2.700000 -4.490000
vn -0.0000 -1.0000 -0.0000
vn -0.0000 1.0000 -0.0000
vn -0.0000 -0.0000 -1.0000
vn 1.0000 -0.0000 -0.0000
vn -0.0000 -0.0000 1.0000
vn -1.0000 -0.0000 -0.0000
vt 0.000000 0.000000
s 0
usemtl Material.003
f 106/21/33 105/21/33 107/21/33 108/21/33
f 110/21/34 112/21/34 111/21/34 109/21/34
f 108/21/35 112/21/35 110/21/35 106/21/35
f 106/21/36 110/21/36 109/21/36 105/21/36
f 105/21/37 109/21/37 111/21/37 107/21/37
f 107/21/38 111/21/38 112/21/38 108/21/38
o Plane.008
v -1.150002 0.000000 -4.490000
v -1.150002 0.000000 -5.025000
v -2.037003 0.000000 -4.490000
v -2.037003 0.000000 -5.025000
v -1.150002 2.700000 -4.490000
v -1.150002 2.700000 -5.025000
v -2.037003 2.700000 -4.490000
v -2.037003 2.700000 -5.025000
vn -0.0000 -1.0000 -0.0000
vn -0.0000 1.0000 -0.0000
vn -0.0000 -0.0000 -1.0000
vn 1.0000 -0.0000 -0.0000
vn -0.0000 -0.0000 1.0000
vn -1.0000 -0.0000 -0.0000
vt 0.000000 0.000000
s 0
usemtl Material.003
f 114/22/39 113/22/39 115/22/39 116/22/39
f 118/22/40 120/22/40 119/22/40 117/22/40
f 116/22/41 120/22/41 118/22/41 114/22/41
f 114/22/42 118/22/42 117/22/42 113/22/42
f 113/22/43 117/22/43 119/22/43 115/22/43
f 115/22/44 119/22/44 120/22/44 116/22/44
o Plane.009
v -0.990001 0.000000 -4.490000
v -0.990001 0.000000 -5.025000
v -1.150001 0.000000 -4.490000
v -1.150001 0.000000 -5.025000
v -0.990001 2.700000 -4.490000
v -0.990001 2.700000 -5.025000
v -1.150001 2.700000 -4.490000
v -1.150001 2.700000 -5.025000
vn -0.0000 -1.0000 -0.0000
vn -0.0000 1.0000 -0.0000
vn -0.0000 -0.0000 -1.0000
vn 1.0000 -0.0000 -0.0000
vn -0.0000 -0.0000 1.0000
vn -1.0000 -0.0000 -0.0000
vt 0.000000 0.000000
s 0
usemtl Material.003
f 122/23/45 121/23/45 123/23/45 124/23/45
f 126/23/46 128/23/46 127/23/46 125/23/46
f 124/23/47 128/23/47 126/23/47 122/23/47
f 122/23/48 126/23/48 125/23/48 121/23/48
f 121/23/49 125/23/49 127/23/49 123/23/49
f 123/23/50 127/23/50 128/23/50 124/23/50
o Plane.011
v 6.860001 0.000000 -1.925000
v 9.960000 0.000000 -1.925000
v 6.860001 0.000000 -5.025001
v 6.860001 0.000000 -2.125000
v 9.960000 0.000000 -2.125000
v 7.060000 0.000000 -1.925000
v 7.060000 0.000000 -5.025001
v 6.860001 2.700000 -5.025001
v 6.860001 2.700000 -1.925000
v 9.960000 2.700000 -1.925000
v 6.860001 2.700000 -2.125000
v 9.960000 2.700000 -2.125000
v 7.060000 2.700000 -5.025001
v 7.060000 2.700000 -1.925000
v 8.136935 0.000000 -2.125000
v 8.136935 2.300000 -2.125000
v 8.136935 2.300000 -1.925001
v 8.136935 0.000000 -1.925000
v 7.421936 2.300000 -2.125000
v 7.421936 2.300000 -1.925000
v 7.421936 0.000000 -2.125000
v 7.421936 0.000000 -1.925000
vn -0.0000 -1.0000 -0.0000
vn -0.0000 1.0000 -0.0000
vn -0.0000 -0.0000 1.0000
vn -1.0000 -0.0000 -0.0000
vn -0.0000 -0.0000 -1.0000
vn 1.0000 -0.0000 -0.0000
vt 0.000000 0.000000
s 0
usemtl Material.003
f 130/24/51 146/24/51 143/24/51 133/24/51
f 129/24/51 131/24/51 135/24/51 134/24/51
f 138/24/52 140/24/52 139/24/52 137/24/52
f 137/24/52 142/24/52 141/24/52 136/24/52
f 134/24/53 142/24/53 137/24/53 129/24/53
f 129/24/54 137/24/54 139/24/54 132/24/54
f 132/24/55 139/24/55 140/24/55 133/24/55 143/24/55 144/24/55 147/24/55 149/24/55
f 129/24/54 137/24/54 136/24/54 131/24/54
f 131/24/55 136/24/55 141/24/55 135/24/55
f 135/24/56 141/24/56 142/24/56 134/24/56
f 133/24/56 140/24/56 138/24/56 130/24/56
f 130/24/53 138/24/53 137/24/53 129/24/53 150/24/53 148/24/53 145/24/53 146/24/53
f 144/24/54 143/24/54 146/24/54 145/24/54
f 145/24/51 148/24/51 147/24/51 144/24/51
f 150/24/51 129/24/51 132/24/51 149/24/51
f 148/24/56 150/24/56 149/24/56 147/24/56
o Plane.013
v 1.460000 0.000000 -1.925000
v 6.860001 0.000000 -1.925000
v 1.460000 0.000000 -5.025001
v 1.660001 0.000000 -1.925000
v 1.660001 0.000000 -5.025001
v 1.460000 0.000000 -2.125000
v 6.860001 0.000000 -2.125000
v 1.460000 2.700000 -5.025001
v 1.460000 2.700000 -1.925000
v 6.860001 2.700000 -1.925000
v 1.660001 2.700000 -5.025001
v 1.660001 2.700000 -1.925000
v 1.460000 2.700000 -2.125000
v 6.860001 2.700000 -2.125000
v 5.673597 0.000000 -1.925000
v 5.673597 0.000000 -2.125000
v 5.673598 2.300000 -2.125000
v 5.673597 2.300000 -1.925000
v 6.388597 2.300000 -2.125000
v 6.388597 2.300000 -1.925000
v 6.388597 0.000000 -1.925000
v 6.388597 0.000000 -2.125000
vn -0.0000 -1.0000 -0.0000
vn -0.0000 1.0000 -0.0000
vn 1.0000 -0.0000 -0.0000
vn -0.0000 -0.0000 -1.0000
vn -1.0000 -0.0000 -0.0000
vn -0.0000 -0.0000 1.0000
vt 0.000000 0.000000
s 0
usemtl Material.003
f 151/25/57 153/25/57 155/25/57 154/25/57
f 152/25/57 171/25/57 172/25/57 157/25/57
f 159/25/58 162/25/58 161/25/58 158/25/58
f 160/25/58 164/25/58 163/25/58 159/25/58
f 157/25/59 164/25/59 160/25/59 152/25/59
f 153/25/60 158/25/60 161/25/60 155/25/60
f 155/25/59 161/25/59 162/25/59 154/25/59
f 151/25/61 159/25/61 158/25/61 153/25/61
f 151/25/61 159/25/61 163/25/61 156/25/61
f 156/25/60 163/25/60 164/25/60 157/25/60 172/25/60 169/25/60 167/25/60 166/25/60
f 154/25/62 162/25/62 159/25/62 151/25/62
f 152/25/62 160/25/62 159/25/62 151/25/62 165/25/62 168/25/62 170/25/62 171/25/62
f 168/25/59 165/25/59 166/25/59 167/25/59
f 167/25/57 169/25/57 170/25/57 168/25/57
f 165/25/57 151/25/57 156/25/57 166/25/57
f 169/25/61 172/25/61 171/25/61 170/25/61
o Cube
v 1.459999 0.000000 1.274999
v 1.459999 1.200000 1.274999
v 1.459999 0.000000 -0.525000
v 1.459999 1.200000 -0.525000
v 2.409999 0.000000 1.274999
v 2.409999 1.200000 1.274999
v 2.409999 0.000000 -0.525000
v 2.409999 1.200000 -0.525000
vn -1.0000 -0.0000 -0.0000
vn -0.0000 -0.0000 -1.0000
vn 1.0000 -0.0000 -0.0000
vn -0.0000 -0.0000 1.0000
vn -0.0000 -1.0000 -0.0000
vn -0.0000 1.0000 -0.0000
vt 0.375000 0.000000
vt 0.625000 0.000000
vt 0.625000 0.250000
vt 0.375000 0.250000
vt 0.625000 0.500000
vt 0.375000 0.500000
vt 0.625000 0.750000
vt 0.375000 0.750000
vt 0.625000 1.000000
vt 0.375000 1.000000
vt 0.125000 0.500000
vt 0.125000 0.750000
vt 0.875000 0.500000
vt 0.875000 0.750000
s 0
usemtl Material.003
f 173/26/63 174/27/63 176/28/63 175/29/63
f 175/29/64 176/28/64 180/30/64 179/31/64
f 179/31/65 180/30/65 178/32/65 177/33/65
f 177/33/66 178/32/66 174/34/66 173/35/66
f 175/36/67 179/31/67 177/33/67 173/37/67
f 180/30/68 176/38/68 174/39/68 178/32/68
o Cube.002
v 8.660000 0.000000 0.675000
v 8.660000 1.200000 0.675000
v 6.860000 0.000000 0.675000
v 6.860000 1.200000 0.675000
v 8.660000 0.000000 -0.275000
v 8.660000 1.200000 -0.275000
v 6.860000 0.000000 -0.275000
v 6.860000 1.200000 -0.275000
vn -0.0000 -0.0000 1.0000
vn -1.0000 -0.0000 -0.0000
vn -0.0000 -0.0000 -1.0000
vn 1.0000 -0.0000 -0.0000
vn -0.0000 -1.0000 -0.0000
vn -0.0000 1.0000 -0.0000
vt 0.375000 0.000000
vt 0.625000 0.000000
vt 0.625000 0.250000
vt 0.375000 0.250000
vt 0.625000 0.500000
vt 0.375000 0.500000
vt 0.625000 0.750000
vt 0.375000 0.750000
vt 0.625000 1.000000
vt 0.375000 1.000000
vt 0.125000 0.500000
vt 0.125000 0.750000
vt 0.875000 0.500000
vt 0.875000 0.750000
s 0
usemtl Material.003
f 181/40/69 182/41/69 184/42/69 183/43/69
f 183/43/70 184/42/70 188/44/70 187/45/70
f 187/45/71 188/44/71 186/46/71 185/47/71
f 185/47/72 186/46/72 182/48/72 181/49/72
f 183/50/73 187/45/73 185/47/73 181/51/73
f 188/44/74 184/52/74 182/53/74 186/46/74
o Cube.003
v 9.960000 0.000000 -1.925000
v 9.960000 1.200000 -1.925000
v 9.960000 0.000000 -1.295000
v 9.960000 1.200000 -1.295000
v 8.940000 0.000000 -1.925000
v 8.940000 1.200000 -1.925000
v 8.940000 0.000000 -1.295000
v 8.940000 1.200000 -1.295000
vn 1.0000 -0.0000 -0.0000
vn -0.0000 -0.0000 1.0000
vn -1.0000 -0.0000 -0.0000
vn -0.0000 -0.0000 -1.0000
vn -0.0000 -1.0000 -0.0000
vn -0.0000 1.0000 -0.0000
vt 0.375000 0.000000
vt 0.625000 0.000000
vt 0.625000 0.250000
vt 0.375000 0.250000
vt 0.625000 0.500000
vt 0.375000 0.500000
vt 0.625000 0.750000
vt 0.375000 0.750000
vt 0.625000 1.000000
vt 0.375000 1.000000
vt 0.125000 0.500000
vt 0.125000 0.750000
vt 0.875000 0.500000
vt 0.875000 0.750000
s 0
usemtl Material.003
f 189/54/75 190/55/75 192/56/75 191/57/75
f 191/57/76 192/56/76 196/58/76 195/59/76
f 195/59/77 196/58/77 194/60/77 193/61/77
f 193/61/78 194/60/78 190/62/78 189/63/78
f 191/64/79 195/59/79 193/61/79 189/65/79
f 196/58/80 192/66/80 190/67/80 194/60/80
o Cube.005
v 9.960000 0.000000 2.255001
v 9.960000 2.700000 2.255001
v 9.960000 0.000000 2.725001
v 9.960000 2.700000 2.725001
v 6.020000 0.000000 2.255002
v 6.020000 2.700000 2.255002
v 6.020000 0.000000 2.725002
v 6.020000 2.700000 2.725002
vn 1.0000 -0.0000 -0.0000
vn -0.0000 -0.0000 1.0000
vn -1.0000 -0.0000 -0.0000
vn -0.0000 -0.0000 -1.0000
vn -0.0000 -1.0000 -0.0000
vn -0.0000 1.0000 -0.0000
vt 0.375000 0.000000
vt 0.625000 0.000000
vt 0.625000 0.250000
vt 0.375000 0.250000
vt 0.625000 0.500000
vt 0.375000 0.500000
vt 0.625000 0.750000
vt 0.375000 0.750000
vt 0.625000 1.000000
vt 0.375000 1.000000
vt 0.125000 0.500000
vt 0.125000 0.750000
vt 0.875000 0.500000
vt 0.875000 0.750000
s 0
usemtl Material.003
f 197/68/81 198/69/81 200/70/81 199/71/81
f 199/71/82 200/70/82 204/72/82 203/73/82
f 203/73/83 204/72/83 202/74/83 201/75/83
f 201/75/84 202/74/84 198/76/84 197/77/84
f 199/78/85 203/73/85 201/75/85 197/79/85
f 204/72/86 200/80/86 198/81/86 202/74/86
o Cube.001
v 4.159999 0.000000 1.274999
v 4.159999 1.200000 1.274999
v 4.159999 0.000000 -0.525000
v 4.159999 1.200000 -0.525000
v 5.109999 0.000000 1.274999
v 5.109999 1.200000 1.274999
v 5.109999 0.000000 -0.525000
v 5.109999 1.200000 -0.525000
vn -1.0000 -0.0000 -0.0000
vn -0.0000 -0.0000 -1.0000
vn 1.0000 -0.0000 -0.0000
vn -0.0000 -0.0000 1.0000
vn -0.0000 -1.0000 -0.0000
vn -0.0000 1.0000 -0.0000
vt 0.375000 0.000000
vt 0.625000 0.000000
vt 0.625000 0.250000
vt 0.375000 0.250000
vt 0.625000 0.500000
vt 0.375000 0.500000
vt 0.625000 0.750000
vt 0.375000 0.750000
vt 0.625000 1.000000
vt 0.375000 1.000000
vt 0.125000 0.500000
vt 0.125000 0.750000
vt 0.875000 0.500000
vt 0.875000 0.750000
s 0
usemtl Material.003
f 205/82/87 206/83/87 208/84/87 207/85/87
f 207/85/88 208/84/88 212/86/88 211/87/88
f 211/87/89 212/86/89 210/88/89 209/89/89
f 209/89/90 210/88/90 206/90/90 205/91/90
f 207/92/91 211/87/91 209/89/91 205/93/91
f 212/86/92 208/94/92 206/95/92 210/88/92
o Plane.014
v -0.990002 0.000000 5.345000
v 9.960000 0.000000 5.345000
v -0.990002 0.000000 2.925000
v 9.960000 0.000000 2.925000
v -1.150002 0.000000 2.925000
v -1.150002 0.000000 5.545000
v 10.160000 0.000000 5.545000
v 10.160000 0.000000 2.925000
v -0.990002 2.700000 2.925000
v -0.990002 2.700000 5.345000
v 9.960000 2.700000 5.345000
v 9.960000 2.700000 2.925000
v -1.150002 2.700000 2.925000
v -1.150002 2.700000 5.545000
v 10.160000 2.700000 5.545000
v 10.160000 2.700000 2.925000
v -1.150002 -0.200000 2.925000
v -1.150002 -0.200000 5.545000
v 10.160000 -0.200000 5.545000
v 10.160000 -0.200000 2.925000
vn -0.0000 1.0000 -0.0000
vn -0.0000 -0.0000 -1.0000
vn -0.0000 -0.0000 1.0000
vn 1.0000 -0.0000 -0.0000
vn -1.0000 -0.0000 -0.0000
vn -0.0000 -1.0000 -0.0000
vt 0.000000 0.000000
vt 1.000000 0.000000
vt 1.000000 1.000000
vt 0.000000 1.000000
s 0
usemtl Material.001
f 213/96/93 214/97/93 216/98/93 215/99/93
f 217/99/94 220/98/94 232/98/94 229/99/94
f 215/99/93 216/98/93 220/98/93 217/99/93
f 220/98/94 216/98/94 224/98/94 228/98/94
f 214/97/94 213/96/94 222/96/94 223/97/94
f 218/96/95 219/97/95 227/97/95 226/96/95
f 223/97/93 222/96/93 226/96/93 227/97/93
f 224/98/93 223/97/93 227/97/93 228/98/93
f 222/96/93 221/99/93 225/99/93 226/96/93
f 219/97/96 220/98/96 228/98/96 227/97/96
f 217/99/97 218/96/97 226/96/97 225/99/97
f 216/98/97 214/97/97 223/97/97 224/98/97
f 213/96/96 215/99/96 221/99/96 222/96/96
f 215/99/94 217/99/94 225/99/94 221/99/94
f 230/96/98 229/99/98 232/98/98 231/97/98
f 219/97/95 218/96/95 230/96/95 231/97/95
f 220/98/96 219/97/96 231/97/96 232/98/96
f 218/96/97 217/99/97 229/99/97 230/96/97
o Plane.015
v 1.659999 0.000000 5.345000
v 1.659999 0.000000 2.925000
v 1.859999 0.000000 5.345000
v 1.859999 0.000000 2.925000
v 1.659999 2.700000 2.925000
v 1.659999 2.700000 5.345000
v 1.859999 2.700000 2.925000
v 1.859999 2.700000 5.345000
vn -0.0000 -1.0000 -0.0000
vn -0.0000 1.0000 -0.0000
vn -0.0000 -0.0000 1.0000
vn -1.0000 -0.0000 -0.0000
vn -0.0000 -0.0000 -1.0000
vn 1.0000 -0.0000 -0.0000
vt 0.000000 0.000000
s 0
usemtl Material.003
f 233/100/99 234/100/99 236/100/99 235/100/99
f 238/100/100 240/100/100 239/100/100 237/100/100
f 235/100/101 240/100/101 238/100/101 233/100/101
f 233/100/102 238/100/102 237/100/102 234/100/102
f 234/100/103 237/100/103 239/100/103 236/100/103
f 236/100/104 239/100/104 240/100/104 235/100/104
o Plane.016
v 4.360000 0.000000 5.345000
v 4.360000 0.000000 2.925000
v 4.559999 0.000000 5.345000
v 4.559999 0.000000 2.925000
v 4.360000 2.700000 2.925000
v 4.360000 2.700000 5.345000
v 4.559999 2.700000 2.925000
v 4.559999 2.700000 5.345000
vn -0.0000 -1.0000 -0.0000
vn -0.0000 1.0000 -0.0000
vn -0.0000 -0.0000 1.0000
vn -1.0000 -0.0000 -0.0000
vn -0.0000 -0.0000 -1.0000
vn 1.0000 -0.0000 -0.0000
vt 0.000000 0.000000
s 0
usemtl Material.003
f 241/101/105 242/101/105 244/101/105 243/101/105
f 246/101/106 248/101/106 247/101/106 245/101/106
f 243/101/107 248/101/107 246/101/107 241/101/107
f 241/101/108 246/101/108 245/101/108 242/101/108
f 242/101/109 245/101/109 247/101/109 244/101/109
f 244/101/110 247/101/110 248/101/110 243/101/110
o Plane.018
v -9.800000 0.000000 2.725000
v 9.960000 0.000000 2.725000
v -10.000000 0.000000 2.925000
v 10.160000 0.000000 2.925000
v -9.800000 2.700000 2.725000
v 9.960000 2.700000 2.725000
v 10.160000 2.700000 2.925000
v -10.000000 2.700000 2.925000
v 4.164336 0.000000 2.725000
v 4.164336 2.300000 2.925000
v 4.164338 0.000000 2.925000
v 4.164336 2.300000 2.725000
v 3.449336 2.300000 2.925000
v 3.449336 2.300000 2.725000
v 3.449338 0.000000 2.725000
v 3.449336 0.000000 2.925000
v 5.537102 2.300000 2.925000
v 5.537102 2.300000 2.725000
v 5.537102 0.000000 2.725000
v 5.537102 0.000000 2.925000
v 4.822102 2.300000 2.925000
v 4.822102 2.300000 2.725000
v 4.822103 0.000000 2.725000
v 4.822102 0.000000 2.925000
v 1.316199 2.289627 2.725001
v 1.316199 2.289626 2.925000
v 1.316199 0.000000 2.925000
v 1.316200 0.000000 2.725000
v 0.601199 2.289626 2.725000
v 0.601199 2.289626 2.925000
v 0.601199 0.000000 2.925000
v 0.601199 0.000000 2.725000
vn -0.0000 -1.0000 -0.0000
vn -0.0000 1.0000 -0.0000
vn -0.7071 -0.0000 -0.7071
vn -0.0000 -0.0000 -1.0000
vn 0.7071 -0.0000 -0.7071
vn -0.0000 -0.0000 1.0000
vn -1.0000 -0.0000 -0.0000
vn 1.0000 -0.0000 -0.0000
vt 0.000000 0.000000
s 0
usemtl Material.003
f 249/102/111 280/102/111 279/102/111 251/102/111
f 253/102/112 256/102/112 255/102/112 254/102/112
f 249/102/113 251/102/113 256/102/113 253/102/113
f 250/102/114 267/102/114 266/102/114 270/102/114 271/102/114 257/102/114 260/102/114 262/102/114 263/102/114 276/102/114 273/102/114 277/102/114 280/102/114 249/102/114 253/102/114 254/102/114
f 252/102/115 250/102/115 254/102/115 255/102/115
f 251/102/116 279/102/116 278/102/116 274/102/116 275/102/116 264/102/116 261/102/116 258/102/116 259/102/116 272/102/116 269/102/116 265/102/116 268/102/116 252/102/116 255/102/116 256/102/116
f 260/102/117 257/102/117 259/102/117 258/102/117
f 258/102/111 261/102/111 262/102/111 260/102/111
f 259/102/111 257/102/111 271/102/111 272/102/111
f 261/102/118 264/102/118 263/102/118 262/102/118
f 266/102/117 267/102/117 268/102/117 265/102/117
f 265/102/111 269/102/111 270/102/111 266/102/111
f 269/102/118 272/102/118 271/102/118 270/102/118
f 268/102/111 267/102/111 250/102/111 252/102/111
f 273/102/117 276/102/117 275/102/117 274/102/117
f 274/102/111 278/102/111 277/102/111 273/102/111
f 275/102/111 276/102/111 263/102/111 264/102/111
f 278/102/118 279/102/118 280/102/118 277/102/118
